<svg xmlns="http://www.w3.org/2000/svg"  viewBox="0 0 50 50" width="50px" height="50px"><path d="M 20 3 C 18.354937 3 17 4.3549372 17 6 L 17 9 L 3 9 C 1.346 9 0 10.346 0 12 L 0 44 C 0 45.654 1.346 47 3 47 L 28.767578 47 C 28.278578 46.376 27.844609 45.708 27.474609 45 L 3 45 C 2.448 45 2 44.551 2 44 L 2 29.816406 C 2.314 29.928406 2.648 30 3 30 L 29.632812 30 C 30.366812 29.236 31.19375 28.567 32.09375 28 L 3 28 C 2.448 28 2 27.551 2 27 L 2 12 C 2 11.449 2.448 11 3 11 L 47 11 C 47.552 11 48 11.449 48 12 L 48 26 L 48 27 L 48 29.652344 C 48.758 30.382344 49.436 31.19675 50 32.09375 L 50 12 C 50 10.346 48.654 9 47 9 L 33 9 L 33 6 C 33 4.3549372 31.645063 3 30 3 L 20 3 z M 20 5 L 30 5 C 30.562937 5 31 5.4370628 31 6 L 31 9 L 19 9 L 19 6 C 19 5.4370628 19.437063 5 20 5 z M 25 22 A 2 2 0 0 0 23 24 A 2 2 0 0 0 25 26 A 2 2 0 0 0 27 24 A 2 2 0 0 0 25 22 z M 37 28 L 36.400391 31.199219 C 36.100391 31.299219 35.700391 31.399609 35.400391 31.599609 L 32.699219 29.699219 L 29.699219 32.699219 L 31.5 35.199219 C 31.4 35.599219 31.199609 35.900781 31.099609 36.300781 L 28 36.800781 L 28 41 L 31.099609 41.5 C 31.199609 41.8 31.3 42.2 31.5 42.5 L 29.699219 45.199219 L 32.699219 48.199219 L 35.400391 46.400391 C 35.800391 46.600391 36.1 46.700781 36.5 46.800781 L 37 50 L 41.099609 50 L 41.699219 46.900391 C 41.999219 46.800391 42.299219 46.7 42.699219 46.5 L 45.400391 48.300781 L 48.400391 45.300781 L 46.5 42.699219 C 46.7 42.299219 46.800391 41.899609 46.900391 41.599609 L 50 41 L 50 36.800781 L 46.800781 36.300781 C 46.700781 36.000781 46.600391 35.600781 46.400391 35.300781 L 48.199219 32.599609 L 45.300781 29.699219 L 42.699219 31.599609 C 42.399219 31.399609 41.999219 31.299219 41.699219 31.199219 L 41.199219 28 L 37 28 z M 38.699219 30 L 39.5 30 L 39.900391 32.699219 L 40.5 32.900391 C 41.1 33.100391 41.699219 33.299609 42.199219 33.599609 L 42.800781 34 L 45.099609 32.300781 L 45.599609 32.800781 L 44 35.099609 L 44.300781 35.599609 C 44.600781 36.199609 44.8 36.800391 45 37.400391 L 45.199219 38 L 48 38.400391 L 48 39.199219 L 45.300781 39.800781 L 45.099609 40.400391 C 44.899609 41.000391 44.700391 41.599609 44.400391 42.099609 L 44 42.699219 L 45.699219 45 L 45.099609 45.599609 L 42.800781 44 L 42.300781 44.300781 C 41.700781 44.600781 41.1 44.8 40.5 45 L 39.900391 45.199219 L 39.400391 48 L 38.599609 48 L 38.199219 45.300781 L 37.599609 45.099609 C 36.999609 44.899609 36.400391 44.700391 35.900391 44.400391 L 35.300781 44 L 32.900391 45.599609 L 32.300781 45 L 33.900391 42.699219 L 33.599609 42.199219 C 33.299609 41.599219 33.100391 40.900391 32.900391 40.400391 L 32.699219 39.800781 L 30 39.300781 L 30 38.5 L 32.800781 38 L 32.900391 37.300781 C 33.000391 36.800781 33.2 36.199219 33.5 35.699219 L 33.900391 35.199219 L 32.300781 32.900391 L 32.900391 32.300781 L 35.199219 33.900391 L 35.699219 33.699219 C 36.399219 33.399219 36.999609 33.100391 37.599609 32.900391 L 38.199219 32.800781 L 38.699219 30 z M 39 34.900391 C 36.8 34.900391 35 36.700391 35 38.900391 C 35 41.100391 36.8 42.900391 39 42.900391 C 41.2 42.900391 43 41.200391 43 38.900391 C 43 36.700391 41.2 34.900391 39 34.900391 z M 39 37 C 40.1 37 41 37.8 41 39 C 41 40.1 40.1 41 39 41 C 37.9 41 37 40.1 37 39 C 37 37.9 37.9 37 39 37 z"/></svg>