<svg xmlns="http://www.w3.org/2000/svg"  viewBox="0 0 50 50" width="50px" height="50px"><path d="M 17 2 C 15.460518 2 14.189795 3.1908245 14.03125 4.6914062 L 11.779297 4.0390625 A 1.0001 1.0001 0 0 0 11.482422 4 A 1.0001 1.0001 0 0 0 10.509766 4.8652344 L 9.1269531 15 L 3 15 A 1.0001 1.0001 0 0 0 2 16 L 2 24 A 1.0001 1.0001 0 0 0 3 25 L 5 25 L 5 31 L 3 31 A 1.0001 1.0001 0 0 0 2 32 L 2 36 A 1.0001 1.0001 0 0 0 3 37 L 6 37 L 6 44 C 6 45.645063 7.3549372 47 9 47 C 10.645063 47 12 45.645063 12 44 L 12 37 L 38 37 L 38 44 C 38 45.645063 39.354937 47 41 47 C 42.645063 47 44 45.645063 44 44 L 44 37 L 47 37 A 1.0001 1.0001 0 0 0 48 36 L 48 32 A 1.0001 1.0001 0 0 0 47.109375 31.005859 C 47.810064 30.0951 47.986328 29.164063 47.986328 29.164062 A 1.0001 1.0001 0 0 0 47.447266 28.105469 C 47.447266 28.105469 45 26.928571 45 24 C 45 20.5 47.707031 17.707031 47.707031 17.707031 A 1.0001 1.0001 0 0 0 47 16 C 45.057366 16 43.72481 16.558986 42.849609 17.111328 C 42.742309 16.455073 42.59272 15.916371 42.427734 15.503906 C 42.126508 14.75084 41.707031 14.292969 41.707031 14.292969 A 1.0001 1.0001 0 0 0 40.990234 13.990234 A 1.0001 1.0001 0 0 0 40.292969 15.707031 C 40.292969 15.707031 40.373489 15.749161 40.572266 16.246094 C 40.684486 16.526645 40.801887 16.942253 40.886719 17.486328 C 39.98363 17.229948 38.712253 17 37 17 A 1.0001 1.0001 0 0 0 36.552734 18.894531 C 36.552734 18.894531 37.096791 19.15604 37.724609 19.927734 C 38.352428 20.699428 39 21.916071 39 23.875 C 39 26.994048 37.369141 28.224609 37.369141 28.224609 A 1.0001 1.0001 0 0 0 37.013672 29.164062 C 37.013672 29.164062 37.189848 30.091115 37.886719 31 L 35 31 L 35 24 A 1.0001 1.0001 0 0 0 34 23 L 30 23 L 30 16 A 1.0001 1.0001 0 0 0 29 15 L 24.228516 15 L 24.980469 9.6542969 A 1.0001 1.0001 0 0 0 24.980469 9.6523438 C 25.117428 8.6777369 24.509733 7.7331017 23.564453 7.4550781 A 1.0001 1.0001 0 0 0 23.560547 7.4550781 L 22 7.0019531 L 22 7 C 22 4.2504839 19.749516 2 17 2 z M 17 4 C 18.464638 4 19.668833 5.026922 19.941406 6.40625 L 16 5.2636719 L 16 5 C 16 4.4349698 16.43497 4 17 4 z M 12.333984 6.2832031 L 14.71875 6.9746094 L 14.720703 6.9746094 L 20.576172 8.671875 A 1.0001 1.0001 0 0 0 20.873047 8.7578125 L 23 9.375 L 22.208984 14.992188 L 11.144531 15 L 12.333984 6.2832031 z M 4 17 L 9.9941406 17 L 10 17 L 28 17 L 28 23 L 6 23 L 4 23 L 4 17 z M 6.984375 17.986328 A 1.0001 1.0001 0 0 0 6 19 L 6 21 A 1.0001 1.0001 0 1 0 8 21 L 8 19 A 1.0001 1.0001 0 0 0 6.984375 17.986328 z M 24.984375 17.986328 A 1.0001 1.0001 0 0 0 24 19 L 24 21 A 1.0001 1.0001 0 1 0 26 21 L 26 19 A 1.0001 1.0001 0 0 0 24.984375 17.986328 z M 44.638672 18.474609 C 43.818131 19.838094 43 21.757309 43 24 C 43 27.189186 44.838476 28.644792 45.783203 29.279297 C 45.713763 29.470051 45.741433 29.548561 45.482422 29.859375 C 45.025339 30.407874 44.25 31 42.5 31 C 40.75 31 39.974661 30.407874 39.517578 29.859375 C 39.19312 29.470025 39.189797 29.304695 39.140625 29.132812 C 39.768666 28.456343 41 26.920951 41 23.875 C 41 21.849074 40.36787 20.419458 39.660156 19.34375 C 39.88709 19.39563 40.343025 19.40137 40.517578 19.455078 C 41.098366 19.633782 41.297754 19.747661 41.371094 19.792969 A 1.0001 1.0001 0 0 0 42.792969 19.623047 C 42.847237 19.568181 43.47252 18.944749 44.638672 18.474609 z M 7 25 L 29 25 L 33 25 L 33 31 L 7 31 L 7 25 z M 9.984375 25.986328 A 1.0001 1.0001 0 0 0 9.6894531 26.035156 A 1.0001 1.0001 0 0 0 9.2714844 26.300781 A 1.0001 1.0001 0 0 0 9.1503906 26.458984 A 1.0001 1.0001 0 0 0 9.0332031 26.732422 A 1.0001 1.0001 0 0 0 9.0019531 26.929688 A 1.0001 1.0001 0 0 0 9 27 L 9 29 A 1.0001 1.0001 0 0 0 9.0742188 29.390625 A 1.0001 1.0001 0 0 0 9.1660156 29.566406 A 1.0001 1.0001 0 0 0 9.3671875 29.789062 A 1.0001 1.0001 0 0 0 9.4472656 29.847656 A 1.0001 1.0001 0 0 0 9.5332031 29.898438 A 1.0001 1.0001 0 0 0 9.71875 29.974609 A 1.0001 1.0001 0 0 0 9.8164062 29.998047 A 1.0001 1.0001 0 0 0 9.9160156 30.009766 A 1.0001 1.0001 0 0 0 10.212891 29.990234 A 1.0001 1.0001 0 0 0 10.310547 29.964844 A 1.0001 1.0001 0 0 0 10.402344 29.929688 A 1.0001 1.0001 0 0 0 10.492188 29.884766 A 1.0001 1.0001 0 0 0 10.576172 29.830078 A 1.0001 1.0001 0 0 0 10.792969 29.623047 A 1.0001 1.0001 0 0 0 10.9375 29.363281 A 1.0001 1.0001 0 0 0 10.988281 29.169922 A 1.0001 1.0001 0 0 0 11 29 L 11 27 A 1.0001 1.0001 0 0 0 10.996094 26.900391 A 1.0001 1.0001 0 0 0 10.982422 26.800781 A 1.0001 1.0001 0 0 0 10.773438 26.351562 A 1.0001 1.0001 0 0 0 10.466797 26.101562 A 1.0001 1.0001 0 0 0 10.375 26.058594 A 1.0001 1.0001 0 0 0 10.183594 26.001953 A 1.0001 1.0001 0 0 0 9.984375 25.986328 z M 29.984375 25.986328 A 1.0001 1.0001 0 0 0 29.884766 25.992188 A 1.0001 1.0001 0 0 0 29.597656 26.070312 A 1.0001 1.0001 0 0 0 29.507812 26.115234 A 1.0001 1.0001 0 0 0 29.207031 26.376953 A 1.0001 1.0001 0 0 0 29.101562 26.544922 A 1.0001 1.0001 0 0 0 29.011719 26.830078 A 1.0001 1.0001 0 0 0 29.001953 26.929688 A 1.0001 1.0001 0 0 0 29 27 L 29 29 A 1.0001 1.0001 0 0 0 29.017578 29.199219 A 1.0001 1.0001 0 0 0 29.074219 29.390625 A 1.0001 1.0001 0 0 0 29.115234 29.480469 A 1.0001 1.0001 0 0 0 29.226562 29.648438 A 1.0001 1.0001 0 0 0 29.367188 29.789062 A 1.0001 1.0001 0 0 0 29.447266 29.847656 A 1.0001 1.0001 0 0 0 29.533203 29.898438 A 1.0001 1.0001 0 0 0 29.625 29.941406 A 1.0001 1.0001 0 0 0 29.71875 29.974609 A 1.0001 1.0001 0 0 0 29.816406 29.998047 A 1.0001 1.0001 0 0 0 29.916016 30.009766 A 1.0001 1.0001 0 0 0 30.115234 30.007812 A 1.0001 1.0001 0 0 0 30.310547 29.964844 A 1.0001 1.0001 0 0 0 30.576172 29.830078 A 1.0001 1.0001 0 0 0 30.728516 29.699219 A 1.0001 1.0001 0 0 0 30.9375 29.363281 A 1.0001 1.0001 0 0 0 30.966797 29.267578 A 1.0001 1.0001 0 0 0 31 29 L 31 27 A 1.0001 1.0001 0 0 0 30.982422 26.800781 A 1.0001 1.0001 0 0 0 30.884766 26.519531 A 1.0001 1.0001 0 0 0 30.773438 26.351562 A 1.0001 1.0001 0 0 0 30.707031 26.279297 A 1.0001 1.0001 0 0 0 30.632812 26.210938 A 1.0001 1.0001 0 0 0 30.28125 26.025391 A 1.0001 1.0001 0 0 0 29.984375 25.986328 z M 4 33 L 6 33 L 34 33 L 42.5 33 L 46 33 L 46 35 L 43 35 L 39 35 L 11 35 L 7 35 L 4 35 L 4 33 z M 8 37 L 10 37 L 10 44 C 10 44.562937 9.5629372 45 9 45 C 8.4370628 45 8 44.562937 8 44 L 8 37 z M 40 37 L 42 37 L 42 44 C 42 44.562937 41.562937 45 41 45 C 40.437063 45 40 44.562937 40 44 L 40 37 z"/></svg>