<svg xmlns="http://www.w3.org/2000/svg"  viewBox="0 0 32 32" width="32px" height="32px"><path fill="none" stroke="#263238" stroke-linecap="round" stroke-linejoin="round" stroke-miterlimit="10" d="M27.52,10.97 c4.11,4.1,3.951,10.9-0.35,15.2c-4.3,4.3-11.1,4.46-15.199,0.35c-4.101-4.1-3.951-10.9,0.35-15.2 c0.645-0.645,1.346-1.196,2.086-1.654"/><path fill="none" stroke="#263238" stroke-linecap="round" stroke-linejoin="round" stroke-miterlimit="10" d="M16.248,8.746 c3.258-1.268,6.934-0.94,9.801,1.007"/><line x1="25.55" x2="25.614" y1="12.145" y2="12.07" fill="#A9E4FF" stroke="#263238" stroke-linecap="round" stroke-miterlimit="10"/><line x1="14.029" x2="14.093" y1="25.593" y2="25.518" fill="#A9E4FF" stroke="#263238" stroke-linecap="round" stroke-miterlimit="10"/><line x1="27.963" x2="28.054" y1="15.845" y2="15.812" fill="#A9E4FF" stroke="#263238" stroke-linecap="round" stroke-miterlimit="10"/><line x1="11.588" x2="11.68" y1="21.852" y2="21.818" fill="#A9E4FF" stroke="#263238" stroke-linecap="round" stroke-miterlimit="10"/><line x1="28.198" x2="28.292" y1="20.346" y2="20.363" fill="#A9E4FF" stroke="#263238" stroke-linecap="round" stroke-miterlimit="10"/><line x1="11.351" x2="11.445" y1="17.3" y2="17.317" fill="#A9E4FF" stroke="#263238" stroke-linecap="round" stroke-miterlimit="10"/><line x1="26.191" x2="26.263" y1="24.444" y2="24.507" fill="#A9E4FF" stroke="#263238" stroke-linecap="round" stroke-miterlimit="10"/><line x1="13.38" x2="13.452" y1="13.156" y2="13.219" fill="#A9E4FF" stroke="#263238" stroke-linecap="round" stroke-miterlimit="10"/><line x1="22.478" x2="22.508" y1="27.041" y2="27.133" fill="#A9E4FF" stroke="#263238" stroke-linecap="round" stroke-miterlimit="10"/><line x1="17.134" x2="17.165" y1="10.53" y2="10.622" fill="#A9E4FF" stroke="#263238" stroke-linecap="round" stroke-miterlimit="10"/><line x1="18.053" x2="18.033" y1="27.442" y2="27.539" fill="#A9E4FF" stroke="#263238" stroke-linecap="round" stroke-miterlimit="10"/><line x1="21.609" x2="21.59" y1="10.125" y2="10.221" fill="#A9E4FF" stroke="#263238" stroke-linecap="round" stroke-miterlimit="10"/><line x1="20.032" x2="21.104" y1="17.795" y2="12.5" fill="#A9E4FF" stroke="#263238" stroke-linecap="round" stroke-miterlimit="10"/><path fill="none" stroke="#263238" stroke-miterlimit="10" d="M20.68,18.94c-0.109,0.54-0.619,0.89-1.14,0.79 c-0.511-0.11-0.84-0.64-0.729-1.18c0.109-0.54,0.619-0.89,1.14-0.78C20.46,17.87,20.79,18.4,20.68,18.94z"/><line x1="1.5" x2="4.5" y1="21.5" y2="21.5" fill="none" stroke="#263238" stroke-linecap="round" stroke-linejoin="round" stroke-miterlimit="10"/><line x1="3.5" x2="8.5" y1="25.5" y2="25.5" fill="none" stroke="#263238" stroke-linecap="round" stroke-linejoin="round" stroke-miterlimit="10"/><line x1="1.5" x2="4.5" y1="13.5" y2="13.5" fill="none" stroke="#263238" stroke-linecap="round" stroke-linejoin="round" stroke-miterlimit="10"/><line x1="3.5" x2="10.5" y1="9.5" y2="9.5" fill="none" stroke="#263238" stroke-linecap="round" stroke-linejoin="round" stroke-miterlimit="10"/><line x1="7.5" x2="17.5" y1="5.5" y2="5.5" fill="none" stroke="#263238" stroke-linecap="round" stroke-linejoin="round" stroke-miterlimit="10"/><line x1="3.5" x2="19" y1="29.5" y2="29.5" fill="none" stroke="#263238" stroke-linecap="round" stroke-linejoin="round" stroke-miterlimit="10"/><line x1="1.5" x2="1.601" y1="29.5" y2="29.5" fill="none" stroke="#263238" stroke-linecap="round" stroke-linejoin="round" stroke-miterlimit="10"/><polyline fill="none" stroke="#263238" stroke-linecap="round" stroke-linejoin="round" stroke-miterlimit="10" points="21.443,6.109 21.59,5.3 23.391,5.7 22.9,8.3"/><line x1="27.52" x2="28.684" y1="10.97" y2="9.753" fill="none" stroke="#263238" stroke-linecap="round" stroke-linejoin="round" stroke-miterlimit="10"/><line x1="16.191" x2="15.603" y1="8.67" y2="7.337" fill="none" stroke="#263238" stroke-linecap="round" stroke-linejoin="round" stroke-miterlimit="10"/></svg>