<svg xmlns="http://www.w3.org/2000/svg"  viewBox="0 0 50 50" width="50px" height="50px"><path d="M 5 4 A 1.0001 1.0001 0 0 0 4 5 L 4 18 A 1.0001 1.0001 0 0 0 5 19 L 13 19 L 13 22 L 1 22 A 1.0001 1.0001 0 0 0 0 23 L 0 27 A 1.0001 1.0001 0 0 0 1 28 L 2 28 L 2 47 A 1.0001 1.0001 0 1 0 4 47 L 4 35 L 29 35 L 29 47 A 1.0001 1.0001 0 0 0 30 48 L 47 48 A 1.0001 1.0001 0 0 0 48 47 L 48 28 L 49 28 A 1.0001 1.0001 0 0 0 50 27 L 50 23 A 1.0001 1.0001 0 0 0 49 22 L 48 22 L 48 12 A 1.0001 1.0001 0 0 0 47 11 L 44 11 L 44 10 A 1.0001 1.0001 0 0 0 43 9 L 39 9 A 1.0001 1.0001 0 0 0 38 10 L 38 13 L 35 13 A 1.0001 1.0001 0 0 0 34 14 L 34 22 L 19 22 L 19 19 L 27 19 A 1.0001 1.0001 0 0 0 28 18 L 28 5 A 1.0001 1.0001 0 0 0 27 4 L 5 4 z M 6 6 L 26 6 L 26 17 L 6 17 L 6 6 z M 40 11 L 42 11 L 42 12 L 42 22 L 40 22 L 40 14 L 40 11 z M 44 13 L 46 13 L 46 22 L 44 22 L 44 13 z M 36 15 L 38 15 L 38 22 L 36 22 L 36 15 z M 15 19 L 17 19 L 17 22 L 15 22 L 15 19 z M 2 24 L 48 24 L 48 26 L 2 26 L 2 24 z M 4 28 L 29 28 L 29 33 L 4 33 L 4 28 z M 31 28 L 46 28 L 46 36 L 31 36 L 31 28 z M 36.5 31 A 1.0001 1.0001 0 1 0 36.5 33 L 40.5 33 A 1.0001 1.0001 0 1 0 40.5 31 L 36.5 31 z M 31 38 L 46 38 L 46 46 L 31 46 L 31 38 z M 36.5 41 A 1.0001 1.0001 0 1 0 36.5 43 L 40.5 43 A 1.0001 1.0001 0 1 0 40.5 41 L 36.5 41 z"/></svg>