<svg xmlns="http://www.w3.org/2000/svg"  viewBox="0 0 128 128" width="128px" height="128px"><path d="M 37 7 C 29.8 7 24 12.8 24 20 C 24 27.2 29.8 33 37 33 C 44.2 33 50 27.2 50 20 C 50 12.8 44.2 7 37 7 z M 97 7 C 89.8 7 84 12.8 84 20 C 84 27.2 89.8 33 97 33 C 104.2 33 110 27.2 110 20 C 110 12.8 104.2 7 97 7 z M 37 13 C 40.9 13 44 16.1 44 20 C 44 23.9 40.9 27 37 27 C 33.1 27 30 23.9 30 20 C 30 16.1 33.1 13 37 13 z M 97 13 C 100.9 13 104 16.1 104 20 C 104 23.9 100.9 27 97 27 C 93.1 27 90 23.9 90 20 C 90 16.1 93.1 13 97 13 z M 27.800781 37 C 21.300781 37 15.7 41.9 15 48.5 L 11.099609 79.699219 C 10.899609 81.299219 12.099219 82.8 13.699219 83 C 15.299219 83.2 16.8 82.000391 17 80.400391 L 20.900391 49.099609 C 21.300391 45.599609 24.300781 43 27.800781 43 L 45 43 C 48.9 43 52 46.1 52 50 L 52 74 C 52 75.7 50.7 77 49 77 C 47.3 77 46 78.3 46 80 L 46 124 C 46 125.7 47.3 127 49 127 C 50.7 127 52 125.7 52 124 L 52 82.5 C 55.5 81.2 58 77.9 58 74 L 58 50 C 58 42.8 52.2 37 45 37 L 27.800781 37 z M 88.800781 37 C 82.300781 37 76.700391 41.900391 75.900391 48.400391 L 72 79.599609 C 71.8 81.199609 72.999609 82.700391 74.599609 82.900391 L 75 82.900391 C 76.5 82.900391 77.8 81.800781 78 80.300781 L 81.900391 49.099609 C 82.300391 45.599609 85.300781 43 88.800781 43 L 105 43 C 108.9 43 112 46.1 112 50 L 112 74 C 112 75.6 110.69961 77 109.09961 77 C 107.39961 77 106 78.3 106 80 L 106 89 L 84.699219 89 C 83.199219 89 82 90.199219 82 91.699219 L 82 91.800781 L 82 91.900391 C 82 93.600391 83.3 94.900391 85 94.900391 L 89 94.900391 L 89 123.69922 C 89 125.29922 90.200781 126.80039 91.800781 126.90039 C 93.500781 127.00039 95 125.60039 95 123.90039 L 95 95 L 99 95 L 99 123.80078 C 99 125.40078 100.20078 126.9 101.80078 127 C 103.50078 127.1 105 125.7 105 124 L 105 95 L 109 95 C 110.7 95 112 93.7 112 92 L 112 82.5 C 115.5 81.3 118 77.9 118 74 L 118 50 C 118 42.8 112.2 37 105 37 L 88.800781 37 z M 37 83 C 35.3 83 34 84.3 34 86 L 34 124 C 34 125.7 35.3 127 37 127 C 38.7 127 40 125.7 40 124 L 40 86 C 40 84.3 38.7 83 37 83 z M 14 89 C 12.3 89 11 90.3 11 92 L 11 104 C 11 105.7 12.3 107 14 107 C 15.7 107 17 105.7 17 104 L 17 92 C 17 90.3 15.7 89 14 89 z M 25 89 C 23.3 89 22 90.3 22 92 L 22 124 C 22 125.7 23.3 127 25 127 C 26.7 127 28 125.7 28 124 L 28 92 C 28 90.3 26.7 89 25 89 z M 75 89 C 73.3 89 72 90.3 72 92 L 72 106 C 72 107.7 73.3 109 75 109 C 76.7 109 78 107.7 78 106 L 78 92 C 78 90.3 76.7 89 75 89 z"/></svg>