<svg xmlns="http://www.w3.org/2000/svg"  viewBox="0 0 64 64" width="64px" height="64px"><path d="M 32.033203 1.9960938 A 1 1 0 0 0 31.509766 2.1308594 L 2.5097656 18.130859 A 1.09 1.09 0 0 0 2 19 L 2 22.820312 A 1 1 0 0 0 2 23 L 2 52 A 1 1 0 0 0 4 52 L 4 24 L 16.820312 24 A 1.2 1.2 0 0 0 17.019531 24 A 0.76 0.76 0 0 0 17.230469 24 L 32 24 L 46.810547 24 L 47.009766 24 L 47.179688 24 L 60.019531 24 L 60.019531 30 A 1 1 0 0 0 62.019531 30 L 62.019531 19 A 1 1 0 0 0 61.199219 18 L 32.509766 2.1308594 A 1 1 0 0 0 32.033203 1.9960938 z M 32 4.140625 L 60 19.640625 L 60 21.359375 L 32.5 6.1308594 A 1 1 0 0 0 31.5 6.1308594 L 24.050781 10.230469 L 4 21.25 L 4 19.539062 L 32 4.140625 z M 32 8.140625 L 38 11.470703 L 32 21.109375 L 26 11.460938 L 32 8.140625 z M 24.550781 13 L 30.189453 22 L 18.789062 22 L 24.550781 13 z M 39.439453 13 L 45.140625 22 L 33.800781 22 L 39.439453 13 z M 21.609375 13.869141 L 17.050781 21 L 15.109375 17.439453 L 21.609375 13.869141 z M 42.369141 13.880859 L 48.859375 17.470703 L 46.859375 21.050781 L 42.369141 13.880859 z M 13.349609 18.400391 L 15.349609 21.980469 L 6.8691406 21.980469 L 13.349609 18.400391 z M 50.609375 18.439453 L 57 22 L 48.669922 22 L 50.609375 18.439453 z M 36 27 A 1 1 0 0 0 35 28 L 35 31 L 26 31 A 1 1 0 0 0 25 32 L 25 41 A 1 1 0 0 0 26 42 L 29 42 L 29 48 L 22 48 L 22 37 A 1 1 0 0 0 21 36 L 9 36 A 1 1 0 0 0 8 37 L 8 45 A 1 1 0 0 0 10 45 L 10 38 L 12 38 L 12 42 A 1 1 0 0 0 13 43 L 17 43 A 1 1 0 0 0 18 42 L 18 38 L 20 38 L 20 48 L 9 48 A 1 1 0 0 0 8 49 L 8 60 L 4 60 L 4 56 A 1 1 0 0 0 2 56 L 2 61 A 1 1 0 0 0 3 62 L 61 62 A 1 1 0 0 0 62 61 L 62 34 A 1 1 0 0 0 61 33 A 1 1 0 0 0 60 34 L 60 60 L 56 60 L 56 28 A 1 1 0 0 0 55 27 L 36 27 z M 37 29 L 50 29 L 50 47 A 1 1 0 0 0 52 47 L 52 29 L 54 29 L 54 60 L 52 60 L 52 51 A 1 1 0 0 0 50 51 L 50 60 L 46 60 L 46 49 A 1 1 0 0 0 45 48 L 43 48 L 43 42 L 46 42 A 1 1 0 0 0 47 41 L 47 32 A 1 1 0 0 0 46 31 L 37 31 L 37 29 z M 27 33 L 45 33 L 45 40 L 43 40 L 43 37 A 1 1 0 0 0 42 36 L 30 36 A 1 1 0 0 0 29 37 L 29 40 L 27 40 L 27 33 z M 14 38 L 16 38 L 16 41 L 14 41 L 14 38 z M 31 38 L 33 38 L 33 42 A 1 1 0 0 0 34 43 L 38 43 A 1 1 0 0 0 39 42 L 39 38 L 41 38 L 41 48 L 31 48 L 31 38 z M 35 38 L 37 38 L 37 41 L 35 41 L 35 38 z M 10 50 L 12 50 L 12 54 A 1 1 0 0 0 13 55 L 17 55 A 1 1 0 0 0 18 54 L 18 50 L 20 50 L 20 60 L 10 60 L 10 50 z M 14 50 L 16 50 L 16 53 L 14 53 L 14 50 z M 22 50 L 24 50 L 24 54 A 1 1 0 0 0 25 55 L 29 55 A 1 1 0 0 0 30 54 L 30 50 L 32 50 L 32 60 L 22 60 L 22 50 z M 26 50 L 28 50 L 28 53 L 26 53 L 26 50 z M 34 50 L 36 50 L 36 54 A 1 1 0 0 0 37 55 L 41 55 A 1 1 0 0 0 42 54 L 42 50 L 44 50 L 44 60 L 34 60 L 34 50 z M 38 50 L 40 50 L 40 53 L 38 53 L 38 50 z"/></svg>