<svg xmlns="http://www.w3.org/2000/svg"  viewBox="0 0 32 32" width="24px" height="24px"><path d="M 15.792969 5.0039062 A 5 5 0 0 0 11.189453 8.65625 A 4 4 0 0 0 6.1035156 14.755859 A 6 6 0 0 0 3 20 L 3 25 A 1 1 0 0 0 4 26 L 8 26 A 1 1 0 0 0 9 27 L 23 27 A 1 1 0 0 0 24 26 L 28 26 A 1 1 0 0 0 29 25 L 29 20 A 6 6 0 0 0 25.896484 14.751953 A 4 4 0 0 0 27 12 A 4 4 0 0 0 20.810547 8.6582031 A 5 5 0 0 0 15.792969 5.0039062 z M 16 7 A 3 3 0 0 1 19 10 A 3 3 0 1 1 16 7 z M 9 10 A 2 2 0 0 1 11 12 A 2 2 0 1 1 9 10 z M 23 10 A 2 2 0 0 1 25 12 A 2 2 0 1 1 23 10 z M 12.625 13.679688 A 5 5 0 0 0 12.681641 13.732422 A 8 8 0 0 0 12.578125 13.779297 A 4 4 0 0 0 12.625 13.679688 z M 19.375 13.679688 A 4 4 0 0 0 19.416016 13.771484 A 8 8 0 0 0 19.324219 13.724609 A 5.006 5.006 0 0 0 19.375 13.679688 z M 15.824219 15.001953 A 6 6 0 0 1 22 21 L 22 24.970703 L 22 25 L 10 25 L 10 21 A 6 6 0 0 1 12.138672 16.414062 A 6 6 0 0 1 15.824219 15.001953 z M 9.0703125 16.003906 A 4 4 0 0 1 9.7089844 16.072266 A 8 8 0 0 0 8 21 L 8 24 L 5 24 L 5 20 A 4 4 0 0 1 9.0703125 16.003906 z M 22.880859 16.003906 A 4 4 0 0 1 27 20 L 27 24 L 24 24 L 24 21 A 8 8 0 0 0 22.289062 16.070312 A 4 4 0 0 1 22.880859 16.003906 z"/></svg>