<svg xmlns="http://www.w3.org/2000/svg"  viewBox="0 0 48 48" width="48px" height="48px"><path fill="none" stroke="#000" stroke-linecap="round" stroke-linejoin="round" stroke-width="3" d="M10.8,36.9C7.5,33.6,5.5,29,5.5,24C5.5,13.8,13.8,5.5,24,5.5c1.3,0,2.5,0.1,3.7,0.4"/><path fill="none" stroke="#000" stroke-linecap="round" stroke-linejoin="round" stroke-width="3" d="M36.4,10.2c3.8,3.4,6.1,8.3,6.1,13.8c0,10.2-8.3,18.5-18.5,18.5c-1.7,0-3.3-0.2-4.9-0.7"/><path fill="none" stroke="#000" stroke-linecap="round" stroke-linejoin="round" stroke-width="3" d="M30.5,30.9c-1.3,1.3-2.6,2.6-6,2.6c-4.4,0-8-4.3-8-9.5s3.6-9.5,8-9.5c3.4,0,4.7,1.3,6,2.6"/><line x1="13.5" x2="23.5" y1="21.5" y2="21.5" fill="none" stroke="#000" stroke-linecap="round" stroke-linejoin="round" stroke-width="3"/><line x1="13.5" x2="23.5" y1="26.5" y2="26.5" fill="none" stroke="#000" stroke-linecap="round" stroke-linejoin="round" stroke-width="3"/></svg>