<svg xmlns="http://www.w3.org/2000/svg"  viewBox="0 0 64 64" width="64px" height="64px"><path d="M 36 2 C 35.448 2 35 2.448 35 3 L 35 4.1191406 L 32.625 2.2207031 C 32.26 1.9287031 31.741953 1.9287031 31.376953 2.2207031 L 21.376953 10.220703 C 21.138953 10.409703 21 10.696 21 11 L 21 19.476562 L 8.6875 28 L 3 28 C 2.448 28 2 28.448 2 29 L 2 33 L 2 37 C 2 37.552 2.448 38 3 38 L 15 38 C 15.552 38 16 37.552 16 37 L 16 33 L 16 29 C 16 28.448 15.552 28 15 28 L 12.201172 28 L 21 21.908203 L 21 27 C 21 27.552 21.448 28 22 28 L 28.585938 28 L 11.585938 45 L 7 45 C 6.448 45 6 45.448 6 46 L 6 50 L 6 54 C 6 54.552 6.448 55 7 55 L 19 55 C 19.552 55 20 54.552 20 54 L 20 50 L 20 46 C 20 45.448 19.552 45 19 45 L 14.414062 45 L 31 28.414062 L 31 52 L 26 52 C 25.448 52 25 52.448 25 53 L 25 57 L 25 61 C 25 61.552 25.448 62 26 62 L 38 62 C 38.552 62 39 61.552 39 61 L 39 57 L 39 53 C 39 52.448 38.552 52 38 52 L 33 52 L 33 28.414062 L 49.585938 45 L 45 45 C 44.448 45 44 45.448 44 46 L 44 50 L 44 54 C 44 54.552 44.448 55 45 55 L 57 55 C 57.552 55 58 54.552 58 54 L 58 50 L 58 46 C 58 45.448 57.552 45 57 45 L 52.414062 45 L 35.414062 28 L 42 28 C 42.552 28 43 27.552 43 27 L 43 21.908203 L 51.798828 28 L 49 28 C 48.448 28 48 28.448 48 29 L 48 33 L 48 37 C 48 37.552 48.448 38 49 38 L 61 38 C 61.552 38 62 37.552 62 37 L 62 33 L 62 29 C 62 28.448 61.552 28 61 28 L 55.3125 28 L 43 19.476562 L 43 11 C 43 10.696 42.862 10.40875 42.625 10.21875 L 41 8.9199219 L 41 3 C 41 2.448 40.552 2 40 2 L 36 2 z M 37 4 L 39 4 L 39 9.4003906 C 39 9.7043906 39.138 9.9916406 39.375 10.181641 L 41 11.480469 L 41 26 L 23 26 L 23 11.480469 L 32 4.2792969 L 35.375 6.9804688 C 35.675 7.2204688 36.086594 7.2655625 36.433594 7.1015625 C 36.780594 6.9355625 37 6.5832188 37 6.1992188 L 37 4 z M 26 14 C 25.448 14 25 14.448 25 15 L 25 19 L 25 23 C 25 23.552 25.448 24 26 24 L 38 24 C 38.552 24 39 23.552 39 23 L 39 19 L 39 15 C 39 14.448 38.552 14 38 14 L 26 14 z M 27 16 L 37 16 L 37 18 L 27 18 L 27 16 z M 27 20 L 37 20 L 37 22 L 27 22 L 27 20 z M 4 30 L 14 30 L 14 32 L 4 32 L 4 30 z M 50 30 L 60 30 L 60 32 L 50 32 L 50 30 z M 4 34 L 14 34 L 14 36 L 4 36 L 4 34 z M 50 34 L 60 34 L 60 36 L 50 36 L 50 34 z M 8 47 L 18 47 L 18 49 L 8 49 L 8 47 z M 46 47 L 56 47 L 56 49 L 46 49 L 46 47 z M 8 51 L 18 51 L 18 53 L 8 53 L 8 51 z M 46 51 L 56 51 L 56 53 L 46 53 L 46 51 z M 27 54 L 37 54 L 37 56 L 27 56 L 27 54 z M 27 58 L 37 58 L 37 60 L 27 60 L 27 58 z"/></svg>