<svg xmlns="http://www.w3.org/2000/svg"  viewBox="0 0 50 50" width="50px" height="50px"><path d="M 3 0 L 3 27 C 3 27.550781 3.449219 28 4 28 L 6 28 L 6 49 C 6 49.550781 6.449219 50 7 50 L 43 50 C 43.550781 50 44 49.550781 44 49 L 44 28 L 46 28 C 46.550781 28 47 27.550781 47 27 L 47 0 L 45 0 L 45 26 L 39 26 L 39 10 C 39 9.449219 38.550781 9 38 9 L 27 9 C 26.96875 9 26.9375 9 26.90625 9 C 26.390625 9.046875 25.996094 9.480469 26 10 L 26 26 L 5 26 L 5 0 Z M 11.8125 0 C 11.335938 0.0898438 10.992188 0.511719 11 1 L 11 9 C 11 9.550781 11.449219 10 12 10 L 20 10 C 20.550781 10 21 9.550781 21 9 L 21 1 C 21 0.449219 20.550781 0 20 0 L 12 0 C 11.96875 0 11.9375 0 11.90625 0 C 11.875 0 11.84375 0 11.8125 0 Z M 13 2 L 19 2 L 19 8 L 13 8 Z M 28 11 L 37 11 L 37 26 L 28 26 Z M 8 28 L 42 28 L 42 48 L 28.0625 48 L 28.0625 44.9375 L 24.0625 44.9375 L 24.0625 40.9375 L 20.0625 40.9375 L 20.0625 36.9375 L 16.0625 36.9375 L 16.0625 32.9375 L 12.0625 32.9375 L 12.0625 28.9375 L 8 28.9375 Z M 8 31.0625 L 9.9375 31.0625 L 9.9375 35.0625 L 13.9375 35.0625 L 13.9375 39.0625 L 17.9375 39.0625 L 17.9375 43.0625 L 21.9375 43.0625 L 21.9375 47.0625 L 25.9375 47.0625 L 25.9375 48 L 8 48 Z"/></svg>