<svg xmlns="http://www.w3.org/2000/svg"  viewBox="0 0 91 91" width="91px" height="91px"><path d="M 42.394531 2.0058594 C 42.070561 2.033082 41.751141 2.1540469 41.478516 2.3730469 C 40.752516 2.9580469 40.637656 4.0200938 41.222656 4.7460938 L 45.029297 9.4726562 C 26.827297 9.4026563 11.111094 23.145953 9.1210938 41.626953 C 7.4110937 57.500953 16.122875 72.365187 30.796875 78.617188 C 31.011875 78.709187 31.235078 78.751953 31.455078 78.751953 C 32.111078 78.751953 32.735766 78.366609 33.009766 77.724609 C 33.374766 76.867609 32.975188 75.876719 32.117188 75.511719 C 18.819188 69.845719 10.927563 56.375281 12.476562 41.988281 C 14.248563 25.533281 28.026344 13.235234 44.152344 12.865234 L 39.986328 16.220703 C 39.260328 16.805703 39.146469 17.86775 39.730469 18.59375 C 40.063469 19.00775 40.551922 19.222656 41.044922 19.222656 C 41.416922 19.222656 41.791516 19.100609 42.103516 18.849609 L 49.773438 12.671875 C 50.122437 12.390875 50.344578 11.983109 50.392578 11.537109 C 50.440578 11.091109 50.309297 10.646828 50.029297 10.298828 L 43.851562 2.6289062 C 43.486562 2.1751563 42.934482 1.9604883 42.394531 2.0058594 z M 58.046875 12.076172 C 57.389266 12.081938 56.76625 12.473391 56.5 13.119141 C 56.144 13.980141 56.553063 14.965266 57.414062 15.322266 C 70.707062 20.819266 78.914047 34.659469 77.373047 48.980469 C 75.599047 65.433469 61.814313 77.722609 45.695312 78.099609 L 49.861328 74.746094 C 50.587328 74.160094 50.701188 73.100047 50.117188 72.373047 C 49.532187 71.646047 48.471141 71.533187 47.744141 72.117188 L 40.072266 78.294922 C 39.723266 78.575922 39.499172 78.982734 39.451172 79.427734 C 39.403172 79.872734 39.535406 80.318969 39.816406 80.667969 L 45.996094 88.337891 C 46.330094 88.751891 46.818547 88.966797 47.310547 88.966797 C 47.682547 88.966797 48.056141 88.84375 48.369141 88.59375 C 49.095141 88.00775 49.208047 86.945703 48.623047 86.220703 L 44.814453 81.492188 C 44.859453 81.492188 44.904219 81.496094 44.949219 81.496094 C 63.089219 81.494094 78.741516 67.776797 80.728516 49.341797 C 82.428516 33.541797 73.371125 18.269125 58.703125 12.203125 C 58.488125 12.114625 58.266078 12.07425 58.046875 12.076172 z M 57.216797 23.878906 C 56.781562 23.882 56.358266 24.052188 56.041016 24.367188 C 53.047016 27.329187 49.384859 27.966672 45.505859 28.638672 C 40.676859 29.475672 35.683781 30.341906 32.425781 35.878906 C 26.729781 45.553906 31.403844 53.2965 32.964844 55.4375 C 31.055844 58.9495 29.584312 62.810187 29.070312 66.867188 C 28.953312 67.791188 29.609203 68.634953 30.533203 68.751953 C 30.605203 68.761953 30.675094 68.765625 30.746094 68.765625 C 31.583094 68.765625 32.311922 68.143016 32.419922 67.291016 C 34.242922 52.891016 50.140781 40.448219 50.300781 40.324219 C 51.037781 39.754219 51.174469 38.694031 50.605469 37.957031 C 50.035469 37.220031 48.975281 37.082344 48.238281 37.652344 C 47.775281 38.009344 40.389953 43.787234 34.876953 52.240234 C 33.405953 49.717234 31.373031 44.314844 35.332031 37.589844 C 37.797031 33.399844 41.636031 32.734891 46.082031 31.962891 C 49.345031 31.397891 52.962891 30.769219 56.212891 28.574219 C 57.255891 33.565219 58.852359 44.740359 54.068359 51.318359 C 51.682359 54.599359 47.893641 56.344859 42.806641 56.505859 C 41.875641 56.534859 41.143828 57.313141 41.173828 58.244141 C 41.202828 59.158141 41.951375 59.878906 42.859375 59.878906 L 42.914062 59.878906 C 49.101062 59.683906 53.773688 57.468875 56.804688 53.296875 C 64.036687 43.338875 59.062656 25.836703 58.847656 25.095703 C 58.680656 24.525703 58.227344 24.082594 57.652344 23.933594 C 57.507844 23.896594 57.361875 23.877875 57.216797 23.878906 z"/></svg>