<svg xmlns="http://www.w3.org/2000/svg"  viewBox="0 0 50 50" width="250px" height="250px"><path d="M 25 0 C 22.898438 0 20.921875 1.363281 19.53125 3.71875 L 14.53125 12.15625 C 14.304688 12.464844 14.273438 12.875 14.449219 13.214844 C 14.628906 13.554688 14.984375 13.761719 15.367188 13.75 C 15.753906 13.738281 16.09375 13.507813 16.25 13.15625 L 21.25 4.71875 C 22.398438 2.777344 23.753906 2 25 2 C 26.246094 2 27.601563 2.777344 28.75 4.71875 L 34.5 14.4375 L 30.4375 16.875 C 30.132813 17.054688 29.949219 17.382813 29.949219 17.734375 C 29.949219 18.085938 30.132813 18.414063 30.4375 18.59375 L 40.4375 24.59375 C 40.746094 24.785156 41.132813 24.796875 41.453125 24.621094 C 41.769531 24.445313 41.96875 24.113281 41.96875 23.75 L 41.96875 11.75 C 41.972656 11.460938 41.847656 11.1875 41.632813 10.996094 C 41.417969 10.804688 41.128906 10.714844 40.84375 10.75 C 40.8125 10.75 40.78125 10.75 40.75 10.75 C 40.640625 10.773438 40.535156 10.816406 40.4375 10.875 L 36.21875 13.40625 L 30.46875 3.71875 C 29.078125 1.363281 27.101563 0 25 0 Z M 39.96875 13.5 L 39.96875 21.96875 L 32.90625 17.75 Z M 12.71875 15.9375 C 12.585938 15.953125 12.460938 15.996094 12.34375 16.0625 L 2.34375 22.09375 C 2.054688 22.277344 1.878906 22.59375 1.878906 22.9375 C 1.878906 23.28125 2.054688 23.597656 2.34375 23.78125 L 6.28125 26.125 L 1.21875 34.6875 C -0.171875 37.042969 -0.371094 39.421875 0.6875 41.21875 C 1.746094 43.015625 3.921875 44 6.6875 44 L 18 44 C 18.359375 44.003906 18.695313 43.816406 18.878906 43.503906 C 19.058594 43.191406 19.058594 42.808594 18.878906 42.496094 C 18.695313 42.183594 18.359375 41.996094 18 42 L 6.6875 42 C 4.382813 42 3.015625 41.222656 2.40625 40.1875 C 1.796875 39.152344 1.789063 37.628906 2.9375 35.6875 L 7.96875 27.15625 L 12.34375 29.78125 C 12.648438 29.957031 13.027344 29.960938 13.335938 29.785156 C 13.640625 29.613281 13.835938 29.289063 13.84375 28.9375 L 13.84375 16.9375 C 13.847656 16.648438 13.722656 16.375 13.507813 16.183594 C 13.292969 15.992188 13.003906 15.902344 12.71875 15.9375 Z M 11.84375 18.6875 L 11.84375 27.1875 L 4.78125 22.9375 Z M 43.40625 26.96875 C 43.070313 27.019531 42.785156 27.238281 42.644531 27.546875 C 42.507813 27.855469 42.535156 28.214844 42.71875 28.5 L 47.0625 35.6875 C 48.210938 37.632813 48.203125 39.152344 47.59375 40.1875 C 46.984375 41.222656 45.617188 42 43.3125 42 L 34 42 L 34 37 C 34.003906 36.710938 33.878906 36.4375 33.664063 36.246094 C 33.449219 36.054688 33.160156 35.964844 32.875 36 C 32.742188 36.027344 32.613281 36.078125 32.5 36.15625 L 22.5 42.15625 C 22.386719 42.230469 22.292969 42.324219 22.21875 42.4375 C 22.195313 42.46875 22.175781 42.5 22.15625 42.53125 C 22.132813 42.582031 22.109375 42.632813 22.09375 42.6875 C 22.066406 42.757813 22.042969 42.832031 22.03125 42.90625 C 22.015625 43.140625 22.082031 43.371094 22.21875 43.5625 C 22.238281 43.59375 22.257813 43.625 22.28125 43.65625 C 22.34375 43.730469 22.417969 43.792969 22.5 43.84375 L 32.5 49.84375 C 32.707031 49.964844 32.949219 50.011719 33.1875 49.96875 C 33.25 49.953125 33.316406 49.933594 33.375 49.90625 C 33.40625 49.898438 33.4375 49.886719 33.46875 49.875 C 33.492188 49.855469 33.511719 49.835938 33.53125 49.8125 C 33.8125 49.636719 33.988281 49.332031 34 49 L 34 44 L 43.3125 44 C 46.078125 44 48.253906 43.015625 49.3125 41.21875 C 50.371094 39.421875 50.171875 37.042969 48.78125 34.6875 C 48.78125 34.675781 48.78125 34.667969 48.78125 34.65625 L 44.4375 27.46875 C 44.234375 27.101563 43.820313 26.902344 43.40625 26.96875 Z M 32 38.75 L 32 47.25 L 24.90625 43 Z"/></svg>