<svg xmlns="http://www.w3.org/2000/svg" xmlns:xlink="http://www.w3.org/1999/xlink" viewBox="0,0,256,256" width="250px" height="250px" fill-rule="nonzero"><g fill="#c73e3a" fill-rule="nonzero" stroke="none" stroke-width="1" stroke-linecap="butt" stroke-linejoin="miter" stroke-miterlimit="10" stroke-dasharray="" stroke-dashoffset="0" font-family="none" font-weight="none" font-size="none" text-anchor="none" style="mix-blend-mode: normal"><g transform="scale(5.12,5.12)"><path d="M30.71875,0c-0.52734,0.09375 -0.88672,0.59375 -0.8125,1.125c0.10938,0.79688 -0.13281,1.58984 -0.625,2.53125c-0.49219,0.94141 -1.24219,2.00781 -2,3.1875c-1.51562,2.36328 -3.05859,5.375 -2.34375,9.375c0.64844,3.63281 3.27734,5.33984 5.75,5.65625c1.23828,0.15625 2.44141,0 3.46875,-0.28125c0.06641,-0.01953 0.125,-0.03906 0.1875,-0.0625c-0.28125,1.30859 -0.67187,2.72656 -1.15625,4.25c-0.17969,-0.00391 -0.36328,0 -0.53125,0c-0.78516,0.00391 -1.51172,0.29688 -2.1875,0.75c-0.34766,0.23047 -0.55469,0.64453 -0.84375,0.96875c-0.69141,-0.42578 -1.50391,-0.66797 -2.375,-0.625c-1.07031,0.05469 -2.12891,0.6875 -2.84375,1.71875c-1.03906,-0.13281 -2.04687,-0.03125 -2.84375,0.46875c-0.5,0.3125 -0.91406,0.75 -1.1875,1.28125c-1.26562,-1.12891 -3.27344,-2.34375 -6.90625,-2.34375c-2.83594,0 -4.14453,0.6875 -5.5625,1.25c-2.70703,1.07422 -7.34375,3.3125 -7.34375,3.3125c-0.36719,0.125 -0.625,0.45313 -0.66797,0.83594c-0.04297,0.38672 0.14063,0.76172 0.47266,0.96484c0.32812,0.19922 0.74609,0.19141 1.07031,-0.01953c0,0 4.67188,-2.24219 7.21875,-3.25c1.55859,-0.61719 2.26563,-1.09375 4.8125,-1.09375c5.61719,0 5.44922,2.52734 7.75,3.90625c0.91016,0.54688 2.37891,0.97266 4.03125,1.375c1.65234,0.40234 3.40625,0.71875 4.75,0.71875c1.16797,0 2,0.22266 2.4375,0.5c0.4375,0.27734 0.5625,0.50391 0.5625,1c0,0.58203 -0.125,0.76953 -0.5625,1.03125c-0.4375,0.26172 -1.28516,0.46875 -2.4375,0.46875h-5.8125c-2.44922,0 -5.90625,-0.96875 -5.90625,-0.96875c-0.53516,-0.15625 -1.09375,0.15234 -1.25,0.6875c-0.15625,0.53516 0.15234,1.09375 0.6875,1.25c0,0 3.52734,1.03125 6.46875,1.03125h5.8125c1.35156,0 2.5,-0.19531 3.4375,-0.75c0.26953,-0.16016 0.50781,-0.35937 0.71875,-0.59375c0.08984,-0.03125 0.17188,-0.07031 0.25,-0.125l9,-6.0625c1.55859,-0.92578 2.64063,-1.16797 3.28125,-1.15625c0.64063,0.01172 0.85938,0.20313 1.0625,0.46875c0.29688,0.38672 0.31641,0.60547 0.125,1.0625c-0.19141,0.45703 -0.72266,1.09766 -1.6875,1.78125c-1.19922,0.85156 -14.41406,9.63281 -15.96875,10.53125c-1.14844,0.66406 -2.06641,1.38672 -3.125,1.6875c-1.05859,0.30078 -2.32422,0.27734 -4.375,-0.71875c-1.36719,-0.66406 -7.15625,-3.6875 -9.03125,-4.65625c-1.03516,-0.53516 -1.88672,-0.83203 -2.78125,-0.78125c-0.89453,0.05078 -1.67578,0.46094 -2.46875,0.96875l-2.6875,1.75c-0.46484,0.30078 -0.59766,0.92578 -0.29687,1.39063c0.30078,0.46484 0.92578,0.59766 1.39063,0.29688l2.6875,-1.75c0.69922,-0.44531 1.09375,-0.63672 1.46875,-0.65625c0.375,-0.01953 0.88672,0.10156 1.78125,0.5625c1.85938,0.96094 7.55859,3.95703 9.0625,4.6875c2.36328,1.14844 4.25781,1.24609 5.78125,0.8125c1.52344,-0.43359 2.61328,-1.30469 3.59375,-1.875c2.08203,-1.20703 14.62109,-9.55859 16.125,-10.625c1.14844,-0.8125 1.95703,-1.66406 2.375,-2.65625c0.41797,-0.99219 0.28906,-2.16406 -0.375,-3.03125c-0.52344,-0.68359 -1.44141,-1.22656 -2.625,-1.25c-0.87891,-0.01562 -1.88672,0.20703 -3.0625,0.75c-0.25,-0.98047 -0.82422,-1.92578 -1.75,-2.59375c-1.07422,-0.77344 -2.66406,-0.92187 -4.375,-0.40625c-0.53125,-0.84375 -1.19922,-1.52344 -1.96875,-1.84375c-0.13672,-0.05469 -0.26953,-0.08203 -0.40625,-0.125c0.5625,-1.80469 0.99219,-3.46875 1.28125,-5.03125c0.46484,0.20313 1.00391,0.35547 1.625,0.375c1.21094,0.03516 2.62109,-0.45703 3.96875,-1.71875c3.48047,-3.26172 3.89453,-13.07422 -10.75,-19.625c-0.14453,-0.07031 -0.30859,-0.10156 -0.46875,-0.09375c-0.03125,0 -0.0625,0 -0.09375,0zM31.75,2.59375c12.41406,6.15625 10.79688,13.91406 8.90625,15.6875c-1.05078,0.98438 -1.86719,1.17578 -2.53125,1.15625c-0.53516,-0.01562 -0.99219,-0.23047 -1.375,-0.46875c0.53125,-4.63672 -0.18359,-8.40625 -1.78125,-12.40625c-0.15625,-0.42969 -0.57812,-0.69922 -1.03125,-0.65625c-0.31641,0.02734 -0.60547,0.20313 -0.76953,0.47266c-0.16797,0.27344 -0.19531,0.60547 -0.07422,0.90234c1.57031,3.92969 2.26172,7.39063 1.65625,11.90625c-0.26562,0.16406 -0.625,0.36328 -1.125,0.5c-0.78516,0.21484 -1.75781,0.30469 -2.6875,0.1875c-1.86328,-0.23828 -3.51562,-1.11328 -4.03125,-4c-0.59766,-3.35156 0.61719,-5.72266 2.0625,-7.96875c0.72266,-1.125 1.50391,-2.17969 2.09375,-3.3125c0.32813,-0.62891 0.54297,-1.30078 0.6875,-2zM32.65625,27.78125c0.19141,0 0.375,0.01953 0.5625,0.03125c0.28516,0.21875 0.66797,0.26563 1,0.125c0.19922,0.04297 0.38672,0.08594 0.5625,0.15625c0.59375,0.24609 1.05469,0.60156 1.375,1.4375c0.10156,0.25391 0.30469,0.45313 0.55859,0.55078c0.25391,0.10156 0.53906,0.09375 0.78516,-0.01953c1.57813,-0.72266 2.53125,-0.46094 3.21875,0.03125c0.6875,0.49219 1.09375,1.37109 1.09375,2.03125l-6.90625,4.65625c-0.19141,-0.8125 -0.69141,-1.51953 -1.40625,-1.96875c-0.91797,-0.57812 -2.09766,-0.8125 -3.5,-0.8125c-1.01172,0 -2.72656,-0.27734 -4.28125,-0.65625c-1.55469,-0.37891 -3.0625,-0.91016 -3.46875,-1.15625c-0.07422,-0.04297 -0.16406,-0.13672 -0.25,-0.21875c0.00781,-0.60547 0.21875,-0.96484 0.625,-1.21875c0.41016,-0.25781 1.09375,-0.36328 1.9375,-0.15625c0.50781,0.125 1.02344,-0.16016 1.1875,-0.65625c0.26953,-0.78125 0.86719,-1.02344 1.625,-1.0625c0.75781,-0.03906 1.49609,0.41016 1.53125,0.46875c0.19922,0.30859 0.54688,0.48047 0.91016,0.45703c0.36719,-0.02734 0.6875,-0.25 0.83984,-0.58203c0.13672,-0.32422 0.51563,-0.75 0.9375,-1.03125c0.42188,-0.28125 0.89453,-0.40625 1.0625,-0.40625z"></path></g></g></svg>